{
  "accessors": [
    {
      "bufferView": 2,
      "componentType": 5126,
      "count": 7615,
      "max": [
        3.2001659870147705,
        13.897783279418945,
        3.2261343002319336
      ],
      "min": [
        -3.108675003051758,
        -43.50679397583008,
        -3.108675003051758
      ],
      "type": "VEC3"
    },
    {
      "bufferView": 2,
      "byteOffset": 91380,
      "componentType": 5126,
      "count": 7615,
      "max": [
        1.0,
        0.9999693036079407,
        1.0
      ],
      "min": [
        -1.0,
        -1.0,
        -1.0
      ],
      "type": "VEC3"
    },
    {
      "bufferView": 1,
      "componentType": 5126,
      "count": 7615,
      "max": [
        0.65625,
        0.9790664911270142
      ],
      "min": [
        0.34375,
        0.02093350887298584
      ],
      "type": "VEC2"
    },
    {
      "bufferView": 0,
      "componentType": 5125,
      "count": 43584,
      "type": "SCALAR"
    }
  ],
  "asset": {
    "extras": {
      "author": "sodanjagi (https://sketchfab.com/sodanjagi)",
      "license": "CC-BY-4.0 (http://creativecommons.org/licenses/by/4.0/)",
      "source": "https://sketchfab.com/3d-models/rod-holder-005654e58bda4fc282f4f6b1c1e1e461",
      "title": "Rod Holder"
    },
    "generator": "Sketchfab-14.38.0",
    "version": "2.0"
  },
  "bufferViews": [
    {
      "buffer": 0,
      "byteLength": 174336,
      "name": "floatBufferViews",
      "target": 34963
    },
    {
      "buffer": 0,
      "byteLength": 60920,
      "byteOffset": 174336,
      "byteStride": 8,
      "name": "floatBufferViews",
      "target": 34962
    },
    {
      "buffer": 0,
      "byteLength": 182760,
      "byteOffset": 235256,
      "byteStride": 12,
      "name": "floatBufferViews",
      "target": 34962
    }
  ],
  "buffers": [
    {
      "byteLength": 418016,
      "uri": "scene.bin"
    }
  ],
  "materials": [
    {
      "doubleSided": true,
      "name": "metal",
      "pbrMetallicRoughness": {
        "baseColorFactor": [
          0.455464,
          0.47383,
          0.578,
          1.0
        ],
        "metallicFactor": 0.0,
        "roughnessFactor": 0.8414967632498965
      }
    }
  ],
  "meshes": [
    {
      "name": "pHelix1_metal_0",
      "primitives": [
        {
          "attributes": {
            "NORMAL": 1,
            "POSITION": 0,
            "TEXCOORD_0": 2
          },
          "indices": 3,
          "material": 0,
          "mode": 4
        }
      ]
    }
  ],
  "nodes": [
    {
      "children": [
        1
      ],
      "matrix": [
        1.0,
        0.0,
        0.0,
        0.0,
        0.0,
        2.220446049250313e-16,
        -1.0,
        0.0,
        0.0,
        1.0,
        2.220446049250313e-16,
        0.0,
        0.0,
        0.0,
        0.0,
        1.0
      ],
      "name": "Sketchfab_model"
    },
    {
      "children": [
        2
      ],
      "matrix": [
        1.0,
        0.0,
        0.0,
        0.0,
        0.0,
        0.0,
        1.0,
        0.0,
        0.0,
        -1.0,
        0.0,
        0.0,
        0.0,
        0.0,
        0.0,
        1.0
      ],
      "name": "76f21e888295487eb902f00eb5eb4934.fbx"
    },
    {
      "children": [
        3
      ],
      "name": "RootNode"
    },
    {
      "children": [
        4
      ],
      "matrix": [
        1.0,
        0.0,
        0.0,
        0.0,
        0.0,
        1.0,
        0.0,
        0.0,
        0.0,
        0.0,
        1.0,
        0.0,
        0.0,
        43.52170181274414,
        0.0,
        1.0
      ],
      "name": "pHelix1"
    },
    {
      "mesh": 0,
      "name": "pHelix1_metal_0"
    }
  ],
  "scene": 0,
  "scenes": [
    {
      "name": "Sketchfab_Scene",
      "nodes": [
        0
      ]
    }
  ]
}
