{
  "accessors": [
    {
      "bufferView": 2,
      "componentType": 5126,
      "count": 2348,
      "max": [
        21.073999404907227,
        -0.0,
        79.62339782714844
      ],
      "min": [
        -21.073999404907227,
        -45.51689910888672,
        -58.25790023803711
      ],
      "type": "VEC3"
    },
    {
      "bufferView": 2,
      "byteOffset": 28176,
      "componentType": 5126,
      "count": 2348,
      "max": [
        0.999390721321106,
        0.9999880790710449,
        0.999987006187439
      ],
      "min": [
        -0.999390721321106,
        -0.9999734163284302,
        -0.9964209198951721
      ],
      "type": "VEC3"
    },
    {
      "bufferView": 1,
      "componentType": 5126,
      "count": 2348,
      "max": [
        0.9700000286102295,
        0.9897000193595886
      ],
      "min": [
        0.01979999989271164,
        0.006800000090152025
      ],
      "type": "VEC2"
    },
    {
      "bufferView": 0,
      "componentType": 5125,
      "count": 10758,
      "type": "SCALAR"
    }
  ],
  "asset": {
    "extras": {
      "author": "ingdearco (https://sketchfab.com/ingdearco)",
      "license": "CC-BY-4.0 (http://creativecommons.org/licenses/by/4.0/)",
      "source": "https://sketchfab.com/3d-models/armadillo-v1-l3-123c933baf6a-b956-499c-b7e8-73f7-78b0a591999e4de4b57d5d0a631cab77",
      "title": "Armadillo_v1_L3_123c933baf6a-b956-499c-b7e8-73f7"
    },
    "generator": "Sketchfab-14.30.0",
    "version": "2.0"
  },
  "bufferViews": [
    {
      "buffer": 0,
      "byteLength": 43032,
      "name": "floatBufferViews",
      "target": 34963
    },
    {
      "buffer": 0,
      "byteLength": 18784,
      "byteOffset": 43032,
      "byteStride": 8,
      "name": "floatBufferViews",
      "target": 34962
    },
    {
      "buffer": 0,
      "byteLength": 56352,
      "byteOffset": 61816,
      "byteStride": 12,
      "name": "floatBufferViews",
      "target": 34962
    }
  ],
  "buffers": [
    {
      "byteLength": 118168,
      "uri": "scene.bin"
    }
  ],
  "images": [
    {
      "uri": "textures/10002_Armadillo_v1_baseColor.jpeg"
    }
  ],
  "materials": [
    {
      "doubleSided": true,
      "emissiveTexture": {
        "index": 0
      },
      "name": "10002_Armadillo_v1",
      "pbrMetallicRoughness": {
        "baseColorTexture": {
          "index": 0
        },
        "metallicFactor": 0.0
      }
    }
  ],
  "meshes": [
    {
      "name": "Object_0",
      "primitives": [
        {
          "attributes": {
            "NORMAL": 1,
            "POSITION": 0,
            "TEXCOORD_0": 2
          },
          "indices": 3,
          "material": 0,
          "mode": 4
        }
      ]
    }
  ],
  "nodes": [
    {
      "children": [
        1
      ],
      "matrix": [
        0.0,
        0.0,
        -1.0,
        0.0,
        2.220446049250313e-16,
        -1.0,
        0.0,
        0.0,
        -1.0,
        -2.220446049250313e-16,
        -4.930380657631324e-32,
        0.0,
        0.0,
        0.0,
        0.0,
        1.0
      ],
      "name": "Sketchfab_model"
    },
    {
      "children": [
        2
      ],
      "name": "10002_Armadillo_v1_L3.obj.cleaner.materialmerger.gles"
    },
    {
      "mesh": 0,
      "name": "Object_2"
    }
  ],
  "samplers": [
    {
      "magFilter": 9729,
      "minFilter": 9987,
      "wrapS": 10497,
      "wrapT": 10497
    }
  ],
  "scene": 0,
  "scenes": [
    {
      "name": "Sketchfab_Scene",
      "nodes": [
        0
      ]
    }
  ],
  "textures": [
    {
      "sampler": 0,
      "source": 0
    }
  ]
}
